<?xml version="1.0" standalone="no"?>
<!DOCTYPE svg PUBLIC "-//W3C//DTD SVG 20010904//EN"
 "http://www.w3.org/TR/2001/REC-SVG-20010904/DTD/svg10.dtd">
<svg version="1.0" xmlns="http://www.w3.org/2000/svg"
 width="300.000000pt" height="300.000000pt" viewBox="0 0 300.000000 300.000000"
 preserveAspectRatio="xMidYMid meet">
<metadata>
Created by potrace 1.14, written by Peter Selinger 2001-2017
</metadata>
<g transform="translate(0.000000,300.000000) scale(0.100000,-0.100000)"
fill="#000000" stroke="none">
<path d="M20 1500 l0 -1480 1480 0 1480 0 0 1480 0 1480 -1480 0 -1480 0 0
-1480z m1434 398 c-18 -172 -33 -319 -33 -325 -1 -10 -60 -13 -262 -13 l-262
0 7 65 c3 36 9 94 12 130 l7 66 -124 -3 -123 -3 -53 -505 c-28 -278 -52 -508
-52 -512 -1 -5 -118 -8 -262 -8 -243 0 -260 1 -256 18 3 9 36 329 73 710 l69
692 645 0 646 0 -32 -312z m781 -35 c31 -192 60 -351 64 -355 3 -4 63 152 132
345 l126 352 192 3 c177 2 191 1 190 -15 0 -10 -116 -328 -257 -708 l-257
-690 -260 0 -260 0 -36 210 c-20 116 -38 218 -40 229 -2 10 -42 -86 -89 -213
l-85 -231 -260 2 -259 3 -58 325 c-31 179 -57 335 -57 348 l-1 22 245 0 245 0
1 33 c2 30 2 30 6 5 2 -16 7 -28 11 -28 4 0 63 156 131 348 68 191 126 350
128 355 2 4 91 7 197 7 l192 0 59 -347z"/>
</g>
</svg>
